<?xml version="1.0" standalone="no"?>
<!DOCTYPE svg PUBLIC "-//W3C//DTD SVG 20010904//EN"
 "http://www.w3.org/TR/2001/REC-SVG-20010904/DTD/svg10.dtd">
<svg version="1.0" xmlns="http://www.w3.org/2000/svg"
 width="298.000000pt" height="169.000000pt" viewBox="0 0 298.000000 169.000000"
 preserveAspectRatio="xMidYMid meet">
<metadata>
Created by potrace 1.15, written by Peter Selinger 2001-2017
</metadata>
<g transform="translate(0.000000,169.000000) scale(0.100000,-0.100000)"
fill="#000000" stroke="none">
<path d="M0 845 l0 -845 1490 0 1490 0 0 845 c0 557 -3 845 -10 845 -7 0 -10
-285 -10 -835 l0 -835 -1455 0 -1455 0 0 33 c0 17 0 393 0 835 l0 802 -25 0
-25 0 0 -845z"/>
<path d="M1913 1650 c38 -12 58 -29 73 -67 10 -22 11 -39 5 -55 -10 -23 -10
-23 -10 4 -1 23 -12 33 -73 68 -78 43 -127 50 -200 30 -38 -11 -42 -18 -53
-86 -7 -43 4 -62 47 -85 19 -10 19 -12 -10 -29 -41 -25 -55 -55 -49 -101 5
-38 4 -39 -21 -31 -15 4 -67 7 -117 7 -70 0 -100 -5 -136 -22 -105 -47 -170
-140 -177 -251 -6 -93 10 -137 89 -234 104 -128 102 -170 -10 -232 -38 -20
-65 -27 -105 -27 -125 0 -160 74 -96 201 17 33 30 70 29 82 -1 22 -1 22 -9 -2
-4 -14 -22 -54 -39 -90 -37 -77 -40 -126 -10 -164 27 -35 61 -47 125 -47 62 0
118 22 161 63 61 59 51 123 -37 233 -63 79 -75 110 -75 195 1 87 24 143 84
199 126 117 354 103 490 -31 108 -105 91 -268 -39 -377 -74 -62 -127 -118
-133 -141 -3 -13 14 -3 55 33 182 158 209 195 216 305 4 52 0 71 -22 117 -30
60 -86 114 -158 151 -46 23 -48 26 -48 67 0 34 6 49 28 70 31 30 50 33 76 14
16 -12 16 -14 2 -26 -9 -8 -16 -18 -16 -24 0 -6 9 -1 20 11 12 12 33 22 47 22
15 0 53 7 84 16 48 14 62 23 83 55 14 21 26 52 26 69 0 62 -49 121 -100 119
-25 -1 -25 -1 3 -9z"/>
<path d="M1780 1272 c0 -4 23 -34 52 -67 73 -85 103 -154 103 -235 0 -83 -26
-137 -109 -227 -88 -97 -98 -113 -42 -68 57 46 129 132 159 189 31 62 28 158
-8 231 -23 49 -155 199 -155 177z"/>
<path d="M990 1042 c-80 -27 -110 -55 -110 -107 0 -48 16 -66 72 -84 20 -7 42
-19 48 -27 7 -7 18 -14 24 -14 6 0 -4 14 -22 30 -35 32 -35 39 1 15 21 -13 28
-11 95 27 l72 42 0 51 c0 46 -3 53 -25 63 -46 21 -98 22 -155 4z"/>
<path d="M82 788 c3 -90 4 -93 28 -96 41 -6 96 16 108 43 20 44 15 93 -13 120
-19 20 -34 25 -75 25 l-51 0 3 -92z"/>
<path d="M1886 704 c-65 -17 -70 -24 -62 -78 7 -44 10 -48 64 -75 54 -27 59
-28 97 -15 22 7 41 14 43 14 1 0 -2 -9 -8 -20 -14 -26 -81 -60 -119 -60 -23 0
-42 12 -79 49 -53 53 -114 78 -161 66 -37 -10 -51 -24 -51 -54 1 -25 1 -25 15
7 13 29 18 32 57 32 117 -1 199 -117 158 -224 -13 -35 -4 -33 15 4 8 16 15 44
15 63 0 32 1 33 58 45 59 12 95 39 121 89 27 53 3 131 -49 158 -34 17 -47 17
-114 -1z"/>
<path d="M960 668 c-24 -52 -26 -128 -4 -169 10 -21 33 -39 71 -56 48 -22 65
-25 127 -20 41 3 93 14 124 27 29 13 55 20 58 17 14 -14 7 -99 -10 -115 -32
-32 -100 -21 -203 33 -88 46 -94 48 -131 37 -60 -18 -87 -54 -87 -114 0 -43 4
-53 33 -79 71 -63 140 -15 75 53 -23 24 -26 32 -15 48 10 16 9 18 -2 14 -27
-10 -25 -34 3 -67 15 -17 26 -38 24 -44 -8 -22 -45 -14 -75 14 -40 39 -39 91
4 133 27 28 37 31 69 27 20 -3 68 -23 105 -45 83 -49 135 -60 187 -38 51 21
61 51 46 143 -9 56 -9 80 0 99 17 38 13 42 -9 9 -11 -16 -20 -42 -20 -56 0
-30 -36 -51 -125 -69 -101 -21 -205 8 -235 66 -18 33 -16 110 4 158 21 51 9
45 -14 -6z"/>
<path d="M1436 513 l-17 -38 6 35 c3 25 2 31 -5 20 -14 -22 -12 -68 6 -148 13
-60 14 -75 2 -98 -36 -74 -127 -90 -232 -41 -42 19 -55 22 -45 10 22 -26 111
-63 153 -63 79 0 144 50 158 123 3 17 6 16 33 -7 17 -14 34 -26 40 -26 5 0 4
-5 -3 -12 -7 -7 -11 -28 -11 -48 2 -30 3 -31 6 -7 2 15 6 27 9 27 2 0 26 -13
52 -30 27 -16 54 -30 59 -30 21 0 44 -39 41 -69 l-3 -31 -74 50 c-40 28 -76
48 -80 45 -14 -15 152 -119 177 -111 10 4 40 20 66 36 46 30 47 31 44 77 -3
45 -5 47 -56 73 -93 47 -126 55 -172 40 -38 -13 -42 -12 -66 11 -14 13 -37 43
-51 67 -23 38 -25 51 -21 113 3 38 4 69 3 69 -2 0 -10 -17 -19 -37z"/>
<path d="M1682 519 c2 -8 21 -23 42 -34 31 -17 36 -24 34 -50 -3 -29 -5 -30
-51 -28 -56 2 -111 38 -133 87 -8 19 -13 24 -14 13 0 -24 23 -68 47 -90 11 -9
43 -23 71 -29 29 -7 52 -15 52 -19 0 -11 -51 -29 -84 -29 -43 0 -83 32 -107
84 l-19 41 6 -35 c8 -43 24 -67 61 -91 67 -45 182 -3 198 72 8 34 -19 89 -43
89 -10 0 -28 7 -41 17 -18 12 -23 13 -19 2z"/>
</g>
</svg>
